<?xml version="1.0" standalone="no"?>
<!DOCTYPE svg PUBLIC "-//W3C//DTD SVG 20010904//EN"
 "http://www.w3.org/TR/2001/REC-SVG-20010904/DTD/svg10.dtd">
<svg version="1.0" xmlns="http://www.w3.org/2000/svg"
 width="226.000000pt" height="167.000000pt" viewBox="0 0 226.000000 167.000000"
 preserveAspectRatio="xMidYMid meet">

<g transform="translate(0.000000,167.000000) scale(0.100000,-0.100000)"
fill="#cc0" stroke="none">
<path d="M1013 1597 c-39 -39 -106 -124 -149 -187 -110 -162 -158 -223 -204
-260 l-40 -32 -22 28 c-78 106 -307 302 -457 392 -83 49 -104 52 -128 16 -16
-25 -16 -29 0 -73 125 -336 144 -428 197 -971 18 -185 24 -217 41 -232 10 -9
19 -24 19 -33 0 -28 38 -73 84 -100 306 -179 1226 -179 1532 0 46 27 84 72 84
100 0 9 9 24 19 33 17 15 23 47 41 232 53 543 72 635 197 971 16 44 16 48 0
73 -24 36 -45 33 -128 -16 -150 -90 -379 -286 -457 -392 l-22 -28 -40 32 c-47
37 -94 97 -208 266 -46 66 -113 151 -151 187 -94 92 -111 92 -208 -6z m167
-553 c55 -47 74 -97 75 -199 0 -81 -3 -95 -30 -143 -61 -111 -156 -109 -211 5
-54 109 -38 251 36 325 46 47 84 50 130 12z m235 -619 c276 -32 475 -102 475
-166 0 -44 -161 -105 -369 -141 -109 -20 -163 -22 -401 -22 -238 0 -292 2
-401 22 -208 36 -369 97 -369 141 0 62 198 133 461 165 156 19 445 19 604 1z"/>
</g>
</svg>
