<?xml version="1.0" standalone="no"?>
<!DOCTYPE svg PUBLIC "-//W3C//DTD SVG 20010904//EN"
 "http://www.w3.org/TR/2001/REC-SVG-20010904/DTD/svg10.dtd">
<svg version="1.0" xmlns="http://www.w3.org/2000/svg"
 width="196.000000pt" height="147.000000pt" viewBox="0 0 196.000000 147.000000"
 preserveAspectRatio="xMidYMid meet">

<g transform="translate(0.000000,147.000000) scale(0.100000,-0.100000)"
fill="#704000" stroke="#f00">
<path d="M922 1442 c-6 -14 -12 -31 -12 -38 0 -7 -4 -14 -8 -16 -4 -1 -24 -38
-44 -80 -44 -93 -98 -150 -195 -202 -120 -65 -214 -161 -291 -296 -34 -61 -85
-207 -76 -221 7 -11 41 -12 48 0 3 4 31 11 63 14 32 3 127 13 211 22 85 9 162
13 173 10 13 -4 19 -16 19 -35 0 -36 3 -35 -190 -56 -80 -9 -176 -20 -215 -25
-101 -11 -192 -34 -256 -65 -48 -22 -60 -34 -81 -78 -47 -97 -68 -182 -68
-282 0 -47 3 -55 29 -73 29 -21 35 -21 970 -21 l941 0 10 26 c22 58 7 210 -34
339 -19 59 -37 90 -90 154 -78 93 -151 162 -221 206 -96 60 -360 158 -475 176
-81 12 -100 21 -100 49 0 37 24 43 112 30 101 -14 204 -48 322 -106 48 -24 92
-44 97 -44 23 0 5 58 -38 122 -69 103 -127 148 -315 243 -165 85 -218 124
-218 165 0 25 -21 70 -32 70 -5 0 -12 9 -16 19 -6 18 -8 18 -20 -7z m-32 -505
c0 -8 -27 -17 -75 -24 -87 -14 -179 -55 -202 -89 -18 -29 -33 -31 -33 -6 0 38
87 92 188 116 74 19 122 20 122 3z m534 -377 c109 -24 195 -65 216 -102 21
-39 5 -46 -27 -11 -50 53 -201 97 -378 109 -75 6 -95 10 -95 22 0 13 14 14 97
8 53 -4 138 -16 187 -26z"/>
</g>
</svg>
